<?xml version="1.0" encoding="UTF-8"?>
<svg version="1.1" xmlns="http://www.w3.org/2000/svg" width="130" height="130">
<path d="M0 0 C6.93 0 13.86 0 21 0 C18.42030965 13.31120222 15.56952847 26.54114017 12.55053711 39.75805664 C10.63235278 48.15841836 8.78538966 56.57045423 7 65 C6.70329825 66.39666666 6.40650078 67.79331298 6.10961914 69.18994141 C5.17580741 73.58465627 4.24403818 77.97980275 3.3125 82.375 C2.98894608 83.90104459 2.66537844 85.42708627 2.34179688 86.953125 C1.5610405 90.63538331 0.78046729 94.3176804 0 98 C9.65074629 90.02843715 15.91017592 80.6145153 18 68 C18.36975642 61.40343297 18.09450758 54.28352273 16 48 C15.4606111 41.75312391 16.40438801 36.02628455 18 30 C21 31 21 31 22.53515625 33.58984375 C29.68755642 49.26658787 31.73194561 65.33452112 26 82 C18.86117578 98.57987089 7.36663962 109.35951246 -9.23828125 116.0546875 C-15.53796893 118.21101624 -21.59319732 118.21633413 -28.1875 118.25 C-29.17814453 118.270625 -30.16878906 118.29125 -31.18945312 118.3125 C-45.55092053 118.38783885 -57.41350102 113.09473616 -67.75390625 103.23828125 C-68.86572266 102.13033203 -68.86572266 102.13033203 -70 101 C-70.84884766 100.18595703 -70.84884766 100.18595703 -71.71484375 99.35546875 C-83.3781907 87.13525112 -85.60521331 71.46080477 -85.3125 55.375 C-84.6856169 40.28801331 -76.47236145 28.34683657 -66 18 C-56.6733458 9.54309332 -44.57190161 4.55888065 -32 5 C-32.66 8.3 -33.32 11.6 -34 15 C-34.72703125 15.20753906 -35.4540625 15.41507813 -36.203125 15.62890625 C-48.439115 19.37813908 -60.37281191 24.88345695 -66.90625 36.34375 C-71.13466084 44.43385994 -74.2853492 51.44717911 -74.3125 60.6875 C-74.32925781 61.99074219 -74.34601563 63.29398438 -74.36328125 64.63671875 C-74.14699805 69.95273219 -72.54450172 74.93990147 -71 80 C-67.88539139 67.2591286 -64.78851368 54.52601692 -62.20605469 41.66479492 C-61.09725385 36.19450769 -61.09725385 36.19450769 -60 34 C-53.07 34 -46.14 34 -39 34 C-41.06542835 44.609012 -43.22474413 55.16684846 -45.68359375 65.69140625 C-46.1400714 67.6633889 -46.59645127 69.6353942 -47.05273438 71.60742188 C-47.75116114 74.62250859 -48.45501666 77.63588404 -49.17358398 80.64624023 C-49.88035202 83.61617728 -50.56515833 86.59045631 -51.24609375 89.56640625 C-51.46776718 90.47250137 -51.68944061 91.3785965 -51.91783142 92.31214905 C-52.10535477 93.14830246 -52.29287811 93.98445587 -52.48608398 94.84594727 C-52.65832993 95.5783815 -52.83057587 96.31081573 -53.00804138 97.06544495 C-53.20495275 99.13432199 -53.20495275 99.13432199 -51.53211975 100.7596283 C-51.02652023 101.16895096 -50.52092072 101.57827362 -50 102 C-47.08059162 91.9022816 -44.81491928 81.70543591 -42.64746094 71.42382812 C-40.05951466 59.1799881 -37.34630872 46.96481529 -34.625 34.75 C-34.3960907 33.72195251 -34.1671814 32.69390503 -33.93133545 31.63470459 C-32.62231339 25.75615081 -31.31141062 19.87802232 -30 14 C-23.07 14 -16.14 14 -9 14 C-10.42583896 23.22094759 -12.31222055 32.27888368 -14.3597908 41.37602043 C-14.92619735 43.89378503 -15.48812763 46.41251308 -16.04891968 48.93153381 C-17.64196631 56.08375809 -19.24278429 63.23423464 -20.84667969 70.3840332 C-21.83249386 74.77999197 -22.8131739 79.17707118 -23.79078293 83.57486153 C-24.16274738 85.24304639 -24.53673276 86.91078201 -24.91279984 88.5780468 C-25.43705727 90.90247135 -25.95481721 93.22825684 -26.47119141 95.55444336 C-26.7049221 96.57921028 -26.7049221 96.57921028 -26.94337463 97.62467957 C-27.71739467 101.14502045 -28.16931844 104.39453382 -28 108 C-26.68 108 -25.36 108 -24 108 C-23.76359299 106.79340225 -23.52718597 105.5868045 -23.28361511 104.34364319 C-20.85752519 92.04118686 -18.2335643 79.79335775 -15.48828125 67.55859375 C-15.07025843 65.68867809 -14.65238951 63.81872803 -14.23466492 61.94874573 C-13.36969098 58.07887482 -12.50319817 54.20934842 -11.63549805 50.34008789 C-10.52325898 45.37999159 -9.41448906 40.4191273 -8.30675983 35.45802212 C-7.44923355 31.61885648 -6.59015881 27.7800387 -5.73058128 23.94133186 C-5.32068734 22.11016372 -4.91122061 20.2788999 -4.50219154 18.44753838 C-3.93440021 15.90665282 -3.36458321 13.36623015 -2.79418945 10.82592773 C-2.62640488 10.07332169 -2.4586203 9.32071564 -2.28575134 8.54530334 C-1.63205979 5.64220484 -0.94181847 2.82545542 0 0 Z " fill="#A79BDE" transform="translate(94,4)"/>
<path d="M0 0 C3 1 3 1 4.53515625 3.58984375 C11.68755642 19.26658787 13.73194561 35.33452112 8 52 C4.12288239 61.00457937 -1.10742682 68.07616799 -8 75 C-8.66 74.01 -9.32 73.02 -10 72 C-9.34 70.68 -8.68 69.36 -8 68 C-9.98 68.495 -9.98 68.495 -12 69 C-12 68.34 -12 67.68 -12 67 C-13.98 67.495 -13.98 67.495 -16 68 C-15.43732422 67.25556641 -15.43732422 67.25556641 -14.86328125 66.49609375 C-13.78508237 65.06483226 -12.71396812 63.62821745 -11.6484375 62.1875 C-10.29832217 60.39587777 -8.87712311 58.65802519 -7.4375 56.9375 C0.28316969 45.79659878 0.82509588 33.92052007 -1 21 C-1.33 20.01 -1.66 19.02 -2 18 C-2.5393889 11.75312391 -1.59561199 6.02628455 0 0 Z " fill="#998FC9" transform="translate(112,34)"/>
<path d="M0 0 C6.93 0 13.86 0 21 0 C19.48880565 9.67774968 17.50086925 19.19432508 15.375 28.75 C15.0465932 30.23691696 14.71846643 31.72389579 14.390625 33.2109375 C13.59696823 36.80800883 12.79955605 40.40423475 12 44 C11.67 44 11.34 44 11 44 C11.1404983 41.2079699 11.28715383 38.41650204 11.4375 35.625 C11.49647461 34.43390625 11.49647461 34.43390625 11.55664062 33.21875 C11.88671875 27.2265625 11.88671875 27.2265625 13 25 C13.66 25 14.32 25 15 25 C15 22.03 15 19.06 15 16 C15.66 16 16.32 16 17 16 C16.97679688 15.40832031 16.95359375 14.81664062 16.9296875 14.20703125 C16.90261719 13.02173828 16.90261719 13.02173828 16.875 11.8125 C16.85179688 11.03519531 16.82859375 10.25789063 16.8046875 9.45703125 C17 7 17 7 19 2 C12.73 1.67 6.46 1.34 0 1 C0 0.67 0 0.34 0 0 Z " fill="#4A475A" transform="translate(64,18)"/>
<path d="M0 0 C-2.1616961 1.13549767 -4.3286189 2.25828972 -6.5 3.375 C-7.10070312 3.69210938 -7.70140625 4.00921875 -8.3203125 4.3359375 C-16.67348793 8.60138879 -24.24039684 9.32205917 -33.5 9.25 C-34.49386719 9.25773437 -35.48773438 9.26546875 -36.51171875 9.2734375 C-42.35617702 9.25799639 -47.39889834 8.6803305 -53 7 C-53 6.67 -53 6.34 -53 6 C-51.35425434 5.97311849 -49.70838587 5.95365877 -48.0625 5.9375 C-47.14597656 5.92589844 -46.22945312 5.91429688 -45.28515625 5.90234375 C-43 6 -43 6 -42 7 C-30.84368774 7.70013894 -20.36832486 7.68026526 -10 3 C-9.34 2.34 -8.68 1.68 -8 1 C-8 0.67 -8 0.34 -8 0 C-4.71303767 -0.79953138 -3.28976808 -1.09658936 0 0 Z " fill="#504C62" transform="translate(99,113)"/>
<path d="M0 0 C6.93 0 13.86 0 21 0 C20.01 5.28 19.02 10.56 18 16 C17.67 16 17.34 16 17 16 C16.97294271 14.22925083 16.95357805 12.45838289 16.9375 10.6875 C16.92589844 9.70136719 16.91429688 8.71523438 16.90234375 7.69921875 C17 5 17 5 18 2 C12.06 2.33 6.12 2.66 0 3 C-0.33 4.32 -0.66 5.64 -1 7 C-0.67 4.69 -0.34 2.38 0 0 Z " fill="#6E6988" transform="translate(34,38)"/>
<path d="M0 0 C0.33 0 0.66 0 1 0 C1 3.3 1 6.6 1 10 C0.34 10 -0.32 10 -1 10 C-1.03738281 11.09699219 -1.07476563 12.19398437 -1.11328125 13.32421875 C-1.17896653 14.77867857 -1.24541299 16.23310416 -1.3125 17.6875 C-1.33505859 18.40873047 -1.35761719 19.12996094 -1.38085938 19.87304688 C-1.60678337 24.37098822 -2.24937312 27.26121225 -5 31 C-5.33 30.34 -5.66 29.68 -6 29 C-6.66 29 -7.32 29 -8 29 C-8 26.69 -8 24.38 -8 22 C-7.34 22.99 -6.68 23.98 -6 25 C-4.02 16.75 -2.04 8.5 0 0 Z " fill="#877EAB" transform="translate(29,59)"/>
<path d="M0 0 C0.33 0 0.66 0 1 0 C0.85946128 2.62538284 0.71281053 5.25017427 0.5625 7.875 C0.52318359 8.62136719 0.48386719 9.36773437 0.44335938 10.13671875 C0.11328125 15.7734375 0.11328125 15.7734375 -1 18 C-1.66 18 -2.32 18 -3 18 C-3.0825 19.299375 -3.165 20.59875 -3.25 21.9375 C-4.00798034 29.77750565 -6.09817614 37.37501319 -8 45 C-8.95933217 41.94095431 -8.98950756 39.89863629 -8.28735352 36.78222656 C-8.10709122 35.96167786 -7.92682892 35.14112915 -7.74110413 34.29571533 C-7.43806618 32.98144562 -7.43806618 32.98144562 -7.12890625 31.640625 C-6.9277269 30.73624695 -6.72654755 29.8318689 -6.51927185 28.90008545 C-5.87540531 26.01476815 -5.21912716 23.1324372 -4.5625 20.25 C-4.12352806 18.29315272 -3.68536717 16.33612331 -3.24804688 14.37890625 C-2.174761 9.58377413 -1.0903361 4.79128266 0 0 Z " fill="#857EA5" transform="translate(62,27)"/>
<path d="M0 0 C-0.99 0 -1.98 0 -3 0 C-3.33 0.99 -3.66 1.98 -4 3 C-5.2065625 3.0928125 -5.2065625 3.0928125 -6.4375 3.1875 C-14.32840884 4.98718096 -20.75165011 10.04558633 -27 15 C-27.66 14.67 -28.32 14.34 -29 14 C-22.38461344 7.26495529 -10.0531406 -3.11994019 0 0 Z " fill="#797398" transform="translate(54,11)"/>
<path d="M0 0 C2.64 0 5.28 0 8 0 C7.34 3.3 6.68 6.6 6 10 C5.21496094 10.25394531 4.42992188 10.50789063 3.62109375 10.76953125 C-2.04105949 12.62449433 -7.57474966 14.53397712 -13 17 C-13 16.34 -13 15.68 -13 15 C-1.47835991 9.62870159 -1.47835991 9.62870159 4 8 C4.33 5.69 4.66 3.38 5 1 C3.35 1 1.7 1 0 1 C0 0.67 0 0.34 0 0 Z " fill="#545068" transform="translate(54,9)"/>
<path d="M0 0 C6.93 0 13.86 0 21 0 C20.38125 3.2175 19.7625 6.435 19.125 9.75 C18.93437988 10.75772461 18.74375977 11.76544922 18.54736328 12.80371094 C18.38993652 13.60583008 18.23250977 14.40794922 18.0703125 15.234375 C17.83465576 16.45979004 17.83465576 16.45979004 17.59423828 17.70996094 C16.99497127 20.01937942 16.14394167 21.91324926 15 24 C15.66290296 16.27194702 16.77779561 8.65914754 18 1 C12.06 1 6.12 1 0 1 C0 0.67 0 0.34 0 0 Z " fill="#484557" transform="translate(94,4)"/>
<path d="M0 0 C0.33 0.66 0.66 1.32 1 2 C0.67 2.66 0.34 3.32 0 4 C0.66 4.33 1.32 4.66 2 5 C0.33333333 6.66666667 -1.33333333 8.33333333 -3 10 C-3.556875 10.598125 -4.11375 11.19625 -4.6875 11.8125 C-6 13 -6 13 -8 13 C-8.33 14.65 -8.66 16.3 -9 18 C-9.66 18 -10.32 18 -11 18 C-9.68493198 13.35250831 -7.83857485 10.0362944 -4.9375 6.1875 C-4.22464844 5.23230469 -3.51179688 4.27710938 -2.77734375 3.29296875 C-1 1 -1 1 0 0 Z " fill="#8D84B3" transform="translate(24,26)"/>
<path d="M0 0 C0.66 0 1.32 0 2 0 C1.27637073 6.39205856 0.19656638 12.68027076 -1 19 C-1.33 19 -1.66 19 -2 19 C-2.05411124 16.58303128 -2.09372278 14.16728213 -2.125 11.75 C-2.14175781 11.06808594 -2.15851563 10.38617188 -2.17578125 9.68359375 C-2.21213482 5.9391765 -2.07944349 3.17647273 0 0 Z " fill="#5D5876" transform="translate(96,79)"/>
<path d="M0 0 C1.64574566 -0.02688151 3.29161413 -0.04634123 4.9375 -0.0625 C5.85402344 -0.07410156 6.77054688 -0.08570312 7.71484375 -0.09765625 C10 0 10 0 11 1 C13.52596259 1.23653523 16.03107207 1.42173692 18.5625 1.5625 C19.27341797 1.60568359 19.98433594 1.64886719 20.71679688 1.69335938 C22.47761912 1.79971777 24.2387832 1.90038846 26 2 C26 2.33 26 2.66 26 3 C23.16640156 3.05449228 20.33387515 3.09390733 17.5 3.125 C16.70851563 3.14175781 15.91703125 3.15851563 15.1015625 3.17578125 C9.72001921 3.21989226 5.17000073 2.50594058 0 1 C0 0.67 0 0.34 0 0 Z " fill="#6B6585" transform="translate(46,119)"/>
<path d="M0 0 C0.66 0 1.32 0 2 0 C2 0.66 2 1.32 2 2 C2.99 2 3.98 2 5 2 C4 5 4 5 2 6 C1.67 6.99 1.34 7.98 1 9 C0.34 9 -0.32 9 -1 9 C-1 10.65 -1 12.3 -1 14 C-1.33 14 -1.66 14 -2 14 C-1.85795259 12.41632253 -1.71119847 10.83306682 -1.5625 9.25 C-1.48128906 8.36828125 -1.40007813 7.4865625 -1.31640625 6.578125 C-1.03761535 4.30649548 -0.61209423 2.20148177 0 0 Z " fill="#958CC2" transform="translate(32,45)"/>
<path d="M0 0 C0.66 0 1.32 0 2 0 C1.48446121 6.49850211 0.53332291 12.66226532 -1 19 C-1.33 19 -1.66 19 -2 19 C-1.8595017 16.2079699 -1.71284617 13.41650204 -1.5625 10.625 C-1.52318359 9.8309375 -1.48386719 9.036875 -1.44335938 8.21875 C-1.11328125 2.2265625 -1.11328125 2.2265625 0 0 Z " fill="#544E68" transform="translate(77,43)"/>
<path d="M0 0 C3 1 3 1 4.75 3.9375 C5.1625 4.948125 5.575 5.95875 6 7 C5.67 7.66 5.34 8.32 5 9 C4.34 9 3.68 9 3 9 C3 7.35 3 5.7 3 4 C0.5 5 0.5 5 -1 9 C-0.67 6.03 -0.34 3.06 0 0 Z " fill="#635F78" transform="translate(112,34)"/>
<path d="M0 0 C1.07310858 3.27185553 0.89263102 5.42947592 0.0625 8.75 C-0.13214844 9.54921875 -0.32679687 10.3484375 -0.52734375 11.171875 C-0.68332031 11.77515625 -0.83929688 12.3784375 -1 13 C-1.33 13 -1.66 13 -2 13 C-2 9.04 -2 5.08 -2 1 C-1.34 0.67 -0.68 0.34 0 0 Z " fill="#57526C" transform="translate(74,62)"/>
<path d="M0 0 C0.66 0 1.32 0 2 0 C1.88490339 1.41750563 1.75746342 2.83401169 1.625 4.25 C1.55539063 5.03890625 1.48578125 5.8278125 1.4140625 6.640625 C0.98492887 9.085877 0.21399362 10.84836903 -1 13 C-1.02708567 11.39592672 -1.04643483 9.7917215 -1.0625 8.1875 C-1.07410156 7.29417969 -1.08570312 6.40085937 -1.09765625 5.48046875 C-1 3 -1 3 0 0 Z " fill="#534F67" transform="translate(67,89)"/>
<path d="M0 0 C0.33 0 0.66 0 1 0 C0.03644647 9.41002278 0.03644647 9.41002278 -1 14 C-1.33 14 -1.66 14 -2 14 C-2.05410687 12.22950311 -2.09284119 10.45853151 -2.125 8.6875 C-2.14820312 7.70136719 -2.17140625 6.71523438 -2.1953125 5.69921875 C-2 3 -2 3 0 0 Z " fill="#4E4A61" transform="translate(108,28)"/>
<path d="M0 0 C0.66 0 1.32 0 2 0 C2 0.66 2 1.32 2 2 C2.66 2.33 3.32 2.66 4 3 C4.33 3.99 4.66 4.98 5 6 C5.66 6 6.32 6 7 6 C6.34 7.32 5.68 8.64 5 10 C3.35 6.7 1.7 3.4 0 0 Z " fill="#867EA8" transform="translate(13,88)"/>
<path d="M0 0 C0.33 0 0.66 0 1 0 C0.88490339 1.41750563 0.75746342 2.83401169 0.625 4.25 C0.55539063 5.03890625 0.48578125 5.8278125 0.4140625 6.640625 C-0.01507113 9.085877 -0.78600638 10.84836903 -2 13 C-2.16682272 8.07872966 -2.24828052 4.49656104 0 0 Z " fill="#464355" transform="translate(102,56)"/>
<path d="M0 0 C6.625 0.75 6.625 0.75 10 3 C10 3.66 10 4.32 10 5 C8.51800098 4.55090939 7.03944764 4.09043436 5.5625 3.625 C4.73878906 3.36976562 3.91507813 3.11453125 3.06640625 2.8515625 C1 2 1 2 0 0 Z " fill="#787096" transform="translate(36,114)"/>
<path d="M0 0 C0.99 0.33 1.98 0.66 3 1 C1.35 2.65 -0.3 4.3 -2 6 C-2.33 5.01 -2.66 4.02 -3 3 C-2.01 2.01 -1.02 1.02 0 0 Z " fill="#726B90" transform="translate(105,103)"/>
</svg>
